<svg id="Layer_1" data-name="Layer 1" xmlns="http://www.w3.org/2000/svg" viewBox="0 0 27 27" width="27" height="27"><defs><style>.cls-1{fill:#00906e;}</style></defs><title>24</title><path class="cls-1" d="M252.493,240.493a11.82,11.82,0,0,1,6.975,2.25h-1.162a.75.75,0,1,0,0,1.5h3.187a.752.752,0,0,0,.75-.75v-3.187a.75.75,0,0,0-1.5,0v1.5a13.5,13.5,0,0,0-21.75,10.687.75.75,0,0,0,1.5,0A12.035,12.035,0,0,1,252.493,240.493Z" transform="translate(-238.992 -238.993)"/><path class="cls-1" d="M265.243,251.743a.752.752,0,0,0-.75.75,12.035,12.035,0,0,1-12,12,11.82,11.82,0,0,1-6.975-2.25h1.162a.75.75,0,1,0,0-1.5h-3.188a.752.752,0,0,0-.75.75v3.187a.75.75,0,0,0,1.5,0v-1.5a13.5,13.5,0,0,0,21.75-10.687A.752.752,0,0,0,265.243,251.743Z" transform="translate(-238.992 -238.993)"/><path class="cls-1" d="M249.942,253.182a3.461,3.461,0,0,0,2.089-3.077,2.887,2.887,0,0,0-5.774.038.836.836,0,0,0,1.671,0,1.216,1.216,0,0,1,2.431,0h0a1.925,1.925,0,0,1-1.178,1.6,5.175,5.175,0,0,0-2.925,4.406.819.819,0,0,0,.836.836h4.1a.836.836,0,1,0,0-1.671H248.08A3.686,3.686,0,0,1,249.942,253.182Z" transform="translate(-238.992 -238.993)"/><path class="cls-1" d="M257.615,256.942a.8.8,0,0,0,.8-.8v-1.216h.418a.832.832,0,0,0,.8-.912.864.864,0,0,0-.874-.722h-.342v-5.242a.789.789,0,0,0-.836-.8h-.418a.814.814,0,0,0-.722.418l-3.229,6.078a.8.8,0,0,0,.722,1.178h2.811v1.178A.875.875,0,0,0,257.615,256.942ZM255.3,253.3l1.481-2.773V253.3Z" transform="translate(-238.992 -238.993)"/></svg>
