<svg
 xmlns="http://www.w3.org/2000/svg"
 xmlns:xlink="http://www.w3.org/1999/xlink"
 width="13px" height="18px">
<path fill-rule="evenodd"  fill="rgb(88, 98, 119)"
 d="M12.884,8.606 C12.881,8.631 12.868,8.703 12.840,8.827 C12.742,9.276 12.596,9.711 12.405,10.129 C11.705,11.803 10.163,14.375 6.789,17.130 C6.704,17.199 6.602,17.233 6.500,17.233 C6.398,17.233 6.296,17.199 6.211,17.130 C2.834,14.375 1.295,11.803 0.595,10.129 C0.404,9.711 0.258,9.273 0.160,8.827 C0.133,8.703 0.119,8.631 0.116,8.606 C0.037,8.199 -0.000,7.781 -0.000,7.367 C-0.000,3.729 2.915,0.767 6.497,0.767 C10.078,0.767 12.993,3.729 13.000,7.367 C13.000,7.781 12.959,8.199 12.884,8.606 ZM6.497,1.695 C3.422,1.695 0.917,4.240 0.917,7.364 C0.917,7.726 0.951,8.085 1.019,8.441 C1.019,8.451 1.023,8.458 1.023,8.465 C1.026,8.482 1.033,8.534 1.053,8.613 C1.053,8.617 1.053,8.617 1.053,8.620 C1.142,9.007 1.267,9.387 1.430,9.746 C1.434,9.749 1.434,9.756 1.437,9.759 C2.073,11.289 3.466,13.622 6.497,16.167 C9.527,13.622 10.921,11.289 11.556,9.759 C11.559,9.756 11.559,9.749 11.563,9.746 C11.729,9.383 11.855,9.007 11.940,8.620 C11.940,8.617 11.940,8.617 11.940,8.613 C11.957,8.534 11.967,8.482 11.970,8.465 C11.970,8.458 11.974,8.451 11.974,8.444 C12.042,8.092 12.076,7.730 12.076,7.364 C12.076,4.240 9.572,1.695 6.497,1.695 ZM6.497,10.993 C4.570,10.993 2.999,9.398 2.999,7.439 C2.999,5.481 4.570,3.885 6.497,3.885 C8.425,3.885 9.995,5.481 9.995,7.439 C9.995,9.398 8.425,10.993 6.497,10.993 ZM6.497,4.832 C5.084,4.832 3.931,6.003 3.931,7.439 C3.931,8.875 5.081,10.046 6.497,10.046 C7.913,10.046 9.063,8.875 9.063,7.439 C9.063,6.003 7.911,4.832 6.497,4.832 Z"/>
</svg>