<svg width="8" height="4" viewBox="0 0 8 4" fill="none" xmlns="http://www.w3.org/2000/svg">
<path d="M6.975 3.91391C6.91406 3.91391 6.86016 3.89198 6.81328 3.84812L4.05 1.26259L1.28672 3.84812C1.23984 3.89198 1.18594 3.91391 1.125 3.91391C1.06406 3.91391 1.01016 3.89198 0.963281 3.84812L0.611718 3.51917C0.564843 3.47531 0.541406 3.42487 0.541406 3.36786C0.541406 3.31084 0.564843 3.2604 0.611718 3.21654L3.88828 0.15075C3.93516 0.106891 3.98906 0.0849608 4.05 0.0849608C4.11094 0.0849608 4.16484 0.106891 4.21172 0.15075L7.48828 3.21654C7.53516 3.2604 7.55859 3.31084 7.55859 3.36786C7.55859 3.42487 7.53516 3.47531 7.48828 3.51917L7.13672 3.84812C7.08984 3.89198 7.03594 3.91391 6.975 3.91391Z" fill="#DD0127"/>
</svg>
