<svg id="Слой_1" data-name="Слой 1" xmlns="http://www.w3.org/2000/svg" viewBox="0 0 18.998 18.003"><defs><style>.cls-1{fill:#fff;opacity:0.5;}</style></defs><title>Call-back-footer</title><path class="cls-1" d="M4.341.418a.814.814,0,0,1,.565.069A.748.748,0,0,1,5.294.9L6.988,4.753a.728.728,0,0,1,.035.5,1.023,1.023,0,0,1-.282.465L4.623,7.4a12.642,12.642,0,0,0,2.559,3.578,12.414,12.414,0,0,0,3.689,2.512L12.6,11.43a1.053,1.053,0,0,1,.476-.275.782.782,0,0,1,.512.035l3.953,1.651a.8.8,0,0,1,.494.929l-.847,3.578a.649.649,0,0,1-.282.482.908.908,0,0,1-.53.172,16.43,16.43,0,0,1-8.259-2.167,16.258,16.258,0,0,1-5.895-5.746A15.4,15.4,0,0,1,0,2.038a.857.857,0,0,1,.177-.516A.674.674,0,0,1,.67,1.247Z" transform="translate(0.001 0.001)"/><path class="cls-1" d="M18.582,6.537a.465.465,0,0,1-.149.349.491.491,0,0,1-.358.145H12.288a.492.492,0,0,1-.358-.146.466.466,0,0,1-.149-.348V.9A.463.463,0,0,1,11.93.551a.492.492,0,0,1,.359-.145l.669-.015a.461.461,0,0,1,.351.153A.5.5,0,0,1,13.451.9l-.075,3.414L17.653.144a.514.514,0,0,1,.716,0l.477.464a.482.482,0,0,1,.019.681l-.019.019-4.277,4.17,3.5-.073a.534.534,0,0,1,.365.138.438.438,0,0,1,.156.341Z" transform="translate(0.001 0.001)"/></svg>