<svg id="Layer_1" data-name="Layer 1" xmlns="http://www.w3.org/2000/svg" viewBox="0 0 95 47"><defs><style>.cls-1{fill:#323743;}</style></defs><title>Aztek-logo</title><path class="cls-1" d="M25.307,27.654l.643-4.479v-.01l.793,4.489Zm2.571-6.723V20.7H24.223v.234l-2.5,11.06-.06.234h3.013v-.234l.311-2.163h2.109l.351,2.163v.234h3.013l-.06-.234Z" transform="translate(-0.633 -0.611)"/><polygon class="cls-1" points="37.378 29.339 37.126 29.349 33.742 29.349 33.461 29.369 33.662 29.054 37.177 22.29 37.177 20.31 37.197 20.076 36.946 20.086 30.78 20.086 30.529 20.076 30.549 20.31 30.549 22.077 30.529 22.311 30.78 22.29 33.883 22.29 34.144 22.27 33.983 22.504 30.288 29.349 30.288 31.38 30.258 31.614 30.519 31.593 37.126 31.593 37.378 31.614 37.357 31.37 37.357 29.572 37.378 29.339"/><polygon class="cls-1" points="52.481 22.29 52.742 22.311 52.722 22.077 52.722 20.31 52.742 20.076 52.491 20.086 46.365 20.086 46.165 20.076 46.184 20.3 46.184 31.38 46.165 31.614 46.416 31.593 52.491 31.593 52.732 31.614 52.722 31.38 52.722 29.582 52.732 29.349 52.491 29.359 49.338 29.359 49.077 29.389 49.107 29.146 49.107 26.891 49.087 26.647 49.338 26.668 52.08 26.668 52.331 26.688 52.311 26.444 52.311 24.707 52.331 24.474 52.08 24.484 49.338 24.484 49.087 24.514 49.107 24.271 49.107 22.534 49.087 22.28 49.338 22.29 52.481 22.29"/><polygon class="cls-1" points="45.402 20.076 45.171 20.086 38.201 20.086 37.95 20.076 37.97 20.31 37.97 22.077 37.96 22.31 38.201 22.29 39.979 22.3 40.23 22.28 40.22 22.513 40.22 31.38 40.2 31.613 40.451 31.593 42.911 31.593 43.152 31.613 43.142 31.38 43.142 22.513 43.121 22.28 43.372 22.3 45.151 22.29 45.391 22.31 45.391 22.077 45.391 20.31 45.402 20.076"/><polygon class="cls-1" points="58.817 24.463 61.7 20.249 61.82 20.076 61.6 20.086 58.839 20.086 58.668 20.076 58.607 20.238 56.427 23.61 56.427 20.309 56.449 20.076 56.197 20.086 53.877 20.086 53.626 20.076 53.647 20.309 53.647 31.38 53.626 31.613 53.877 31.593 56.197 31.593 56.449 31.613 56.427 31.38 56.427 27.876 57.111 26.901 59.059 31.38 59.149 31.613 59.411 31.593 62.142 31.593 62.403 31.613 62.252 31.37 58.817 24.463"/><path class="cls-1" d="M64.593,26.355a.72.72,0,0,1-.341-.437,1.282,1.282,0,0,1,.793-1.391,1.52,1.52,0,0,1,1,.223c0,.213.05.6.05.6-.2.213-1.054,1.137-1.557,1.016m2.008-1.93a.28.28,0,0,0-.362,0l-.281-.183a2.278,2.278,0,0,0-1.095-.1.889.889,0,0,0-.4.213,1.953,1.953,0,0,0-.6,1.848c.1.518.452.569.813.65.522.132,1.456-.792,1.657-1.077a3.148,3.148,0,0,0,.321.812c.08.132.261.325.362.457a.745.745,0,0,0,.4-.081,8.567,8.567,0,0,1-.492-1.1c-.171-.427-.191-1.371-.281-1.462" transform="translate(-0.633 -0.611)"/><path class="cls-1" d="M69.161,26.385A3.606,3.606,0,0,1,68,26.192a.613.613,0,0,1-.291-.335,1.125,1.125,0,0,1,.141-.894.758.758,0,0,1,.452-.295,1.173,1.173,0,0,1,.582.061.421.421,0,0,1,.181.213,3.907,3.907,0,0,1,.09,1.432m-.392-5.332c-.241.741.522,2.59.261,3.209-.111.112-.663-.122-.9-.061a1.072,1.072,0,0,0-.933,1.066,1.369,1.369,0,0,0,1.053,1.483,6.85,6.85,0,0,0,1.126.193.857.857,0,0,0,.241-.122c.221-1.625-.281-3.727-.372-5.6a1.808,1.808,0,0,0-.472-.183" transform="translate(-0.633 -0.611)"/><path class="cls-1" d="M72.415,24.069c-.05,0-.1-.051-.291-.081a3.858,3.858,0,0,1-.8,2.265,3.137,3.137,0,0,1-.472-.792c-.08-.2-.11-.437-.191-.62s-.181-.62-.271-.62h-.381a3.854,3.854,0,0,0,1.224,2.6l.151.071c.132-.152.372-.284.463-.406a7.648,7.648,0,0,0,.762-2.316.391.391,0,0,1-.191-.1" transform="translate(-0.633 -0.611)"/><path class="cls-1" d="M76.463,25.329c-.07-.142,0-.609-.1-.8s0-.244.181-.274c.392-.152,1,.376,1.145.609,0,0,.131.223-.372.345a7.269,7.269,0,0,0-.854.132m.5.447-.11-.1c.34-.061,1-.081,1.185-.406a.555.555,0,0,0,.06-.487,1.754,1.754,0,0,0-.643-.721,2,2,0,0,0-.834-.254,1.119,1.119,0,0,0-.663.315,8.588,8.588,0,0,0,.1,2.092v.792H76.5a8.916,8.916,0,0,0,0-1.087,4.658,4.658,0,0,0,.482.406,4.154,4.154,0,0,0,1.135.569.916.916,0,0,0,.29-.325c-.251-.122-.531-.274-.792-.406a7.294,7.294,0,0,1-.663-.4" transform="translate(-0.633 -0.611)"/><path class="cls-1" d="M79.767,26.223s-.181.051-.281-.264c-.1-.569,0-1.442-.141-2.031a4.588,4.588,0,0,0,1.125-.071v-.345l-1.095-.051a2.413,2.413,0,0,0-.06-.538,15.923,15.923,0,0,1-.171-1.787c-.131,0-.291,0-.372-.091-.241.132.07,2.234,0,2.3-.542,0-.363-.112-.854-.142v.467l.834.234s.07.8.09,1.148c0,.589,0,1.462.32,1.767a1.01,1.01,0,0,0,.413.1c.311,0,.894-.569.894-.569s-.191-.386-.211-.447a.88.88,0,0,1-.553.3" transform="translate(-0.633 -0.611)"/><path class="cls-1" d="M81.484,23.419a1.7,1.7,0,0,0,0-.752.164.164,0,0,0-.1-.091,1.7,1.7,0,0,0-.452.061,6.111,6.111,0,0,0,.211.741Z" transform="translate(-0.633 -0.611)"/><path class="cls-1" d="M81.735,25.065V23.937c0-.112-.331-.051-.552-.122a4.9,4.9,0,0,0,0,1.493,3.009,3.009,0,0,0,.09.9c.09.315-.08.5,0,.64s.351.071.432,0a.965.965,0,0,0,0-.274V25.085" transform="translate(-0.633 -0.611)"/><path class="cls-1" d="M85.47,23.419a1.674,1.674,0,0,0,.07-.8,1.084,1.084,0,0,0-.471,0,.12.12,0,0,0-.051.112,5.77,5.77,0,0,0,.132.691Z" transform="translate(-0.633 -0.611)"/><path class="cls-1" d="M85.641,25.247c-.069-.295,0-.538-.06-.945v-.427a2.214,2.214,0,0,1-.492,0,11.309,11.309,0,0,0,.071,2.265,2.965,2.965,0,0,1,0,.68h.471a3.461,3.461,0,0,0,0-.721,4.09,4.09,0,0,1,0-.853" transform="translate(-0.633 -0.611)"/><path class="cls-1" d="M88.9,26.162c-.15-.812-.2-1.3-.382-1.98,0,0-.121-.091-.19-.071-.553,0-1.457,1.29-1.457,1.29a2.42,2.42,0,0,1-.06-.589,2.948,2.948,0,0,0-.09-.965,1.835,1.835,0,0,0-.472,0c0,.528.06.741.08,1.188a11.237,11.237,0,0,0,.06,1.371,1.655,1.655,0,0,0,0,.467h.492a4.5,4.5,0,0,1,.523-1.432,2.129,2.129,0,0,1,.633-.569H88.1a5.461,5.461,0,0,1,.141.731,5.632,5.632,0,0,0,.291,1.33,2.234,2.234,0,0,0,.383-.091c-.006-.227-.023-.455-.051-.68" transform="translate(-0.633 -0.611)"/><path class="cls-1" d="M74.122,24.466c.422-.142.744.386.744.386a2.342,2.342,0,0,1-.512.355l-.684.335c0-.132-.241-.833.452-1.077m.392,1.889a1.2,1.2,0,0,1-.633-.386s.542-.254.914-.467a1.87,1.87,0,0,0,.573-.538c0-.193,0-.223-.261-.6a1,1,0,0,0-.845-.416,1.373,1.373,0,0,0-.683.244c-.35.295-.673.6-.341,1.534a6.328,6.328,0,0,1-.854.427,1.884,1.884,0,0,0,.121.325,2.811,2.811,0,0,0,.884-.325,1.664,1.664,0,0,0,1.115.65,2.446,2.446,0,0,0,1-.183,2.742,2.742,0,0,0,0-.406,2.481,2.481,0,0,1-1,.132" transform="translate(-0.633 -0.611)"/><path class="cls-1" d="M83.09,24.993c-.08-.091-.161-.223-.069-.345a.738.738,0,0,1,.642-.295c.271,0,.372.122.673.173v-.477a3.513,3.513,0,0,0-.743-.173,1.4,1.4,0,0,0-1.284.62c.05,1.016,1.426,1.117,1.547,1.391s-.272.366-.272.366a2.268,2.268,0,0,1-1.205-.152.893.893,0,0,0-.24.122.84.84,0,0,0,.24.538,3.5,3.5,0,0,0,1.205.1,1,1,0,0,0,.824-.6c.059-.071,0-.284,0-.4-.261-.711-1.305-.782-1.386-.873" transform="translate(-0.633 -0.611)"/><path class="cls-1" d="M89.929,25.664c-.241-.3-.393-.64,0-1.016a.667.667,0,0,1,.944-.123.685.685,0,0,1,.181.214,1.28,1.28,0,0,1,.06.508.815.815,0,0,1-1.175.386m1.165.924c-.442-.132-.432,0-.482-.091s.13-.274.21-.295a1.1,1.1,0,0,0,.824-.7,1.387,1.387,0,0,0-.643-1.361.372.372,0,0,1,.311-.274,2.513,2.513,0,0,1,.3-.061c.06,0-.151-.335-.151-.335h-.321a.516.516,0,0,0-.462.538,1.28,1.28,0,0,0-.865.1,1.131,1.131,0,0,0-.592,1.477,1.047,1.047,0,0,0,.05.108,1.249,1.249,0,0,0,.523.477c.05,0,.422,0,.472.061-.2.244-.291.264-.341.366a.246.246,0,0,0,.112.326.242.242,0,0,0,.149.019,1.885,1.885,0,0,1,.591.091,1.277,1.277,0,0,1,.753.6c.071.173.232.6-.24.741-.813,0-1.4-.559-2.209-.66a.532.532,0,0,0-.362.2c-.1.132.089.345.2.427.181.264.251,0,.5.1a4.653,4.653,0,0,0,.934.345,3.575,3.575,0,0,0,.864.162.918.918,0,0,0,.6-.284,1.171,1.171,0,0,0,.232-.355.925.925,0,0,0,0-.772,1.43,1.43,0,0,0-1-.924" transform="translate(-0.633 -0.611)"/><path class="cls-1" d="M14.883,15.426V14.9c0-.162.06-.152.07-.223.3,0,.924.122,1.175.112.743.081,3.495.315,4.358.376-1,.213-3.776.406-4.86.548a1.929,1.929,0,0,1-.753-.284m5.513,25.391c-.121-.376-.813-2.895-.894-3.047-.181-.406-.341-.762-.482-1.077a14.254,14.254,0,0,1-1.185-3.575c0-.132-.813-3.047-.813-3.047l-.582-3.737c-.623-3.707-.482-7.424.08-9.019l1-.2a34.75,34.75,0,0,1,4.931-.9.768.768,0,0,0,.713-.792.932.932,0,0,0-.753-.945,26.367,26.367,0,0,0-4.017-.67c-1-.1-2.28,0-3.113-.152a9.967,9.967,0,0,0,.382-.965,1.78,1.78,0,0,0-.482-1.869,1.493,1.493,0,0,0-1.486-.3,1.683,1.683,0,0,0-1.3,1.564,2.4,2.4,0,0,0,0,.416c0,.081-.231.843-.211.955s.2.091.341.132.09.63.09.63c.06.416.09.559.4.528h.362c.02,0,0,.731,0,.863a42.463,42.463,0,0,1-5.935.325c-.924,0-2.892,0-3.836.071-.231-1.31-.532-3.494,1-8.714A26.625,26.625,0,0,1,6,4.366,11.961,11.961,0,0,0,7.211,1.187C7.291.619,6.98.619,6.98.619s-.372-.1-.562.457S5.725,2.487,5.212,3.513A27.692,27.692,0,0,0,4,6.306,17.089,17.089,0,0,0,2.772,10.9a42.636,42.636,0,0,0-.241,5.139,9.336,9.336,0,0,1-1.085.315,1.286,1.286,0,0,0-.813.518c.171.66,1.406.234,2.008.274.08.68.141,1.391.2,2.031A26.551,26.551,0,0,0,3.5,23.236C4.058,25.593,4.8,27.979,5.313,29.5A6.724,6.724,0,0,0,6,30.965c.161.264.362.325.512.264a.417.417,0,0,0,.151-.508c-.08-.295-.482-1.239-.522-1.412-.633-2.468-1.386-4.53-1.757-6.571a37.31,37.31,0,0,1-.7-5.566c.3,0,3.856.122,4.107.071a30.463,30.463,0,0,1,3.354.376,6.209,6.209,0,0,0,1.064,0c.121.924.472,1.757.643,2.681.121.65.251,1.33.351,1.97a15.624,15.624,0,0,1,.181,2.722c-1.075-.162-2.752-.315-3.655-.386,0,0-1.165-.2-1.255-.2s-1.115.061-1.406.548v.061c-.4,1,1.326,3.6,4.308,8.227.4.62.753,1.209.914,1.483A25.6,25.6,0,0,0,10.957,37a.758.758,0,0,0,.251.752.629.629,0,0,0,.341,0l.532-.213a13.291,13.291,0,0,1,.813-1.178,12.918,12.918,0,0,1,1.145-1.087,1.074,1.074,0,0,0-.261-1.016c0-.071-1.7-3.22-2.008-4.062a13.985,13.985,0,0,0-.934-1.96c-.05-.091-.743-.945-.924-1.178.924.071,4.137.782,4.288.812.11.295.864,3.341,1.235,4.357.793,2.173,1.878,5.139,2.149,6.175.131.457.532,1.462,1,2.641.522,1.341,1.536,3.159,1.687,3.768A6.088,6.088,0,0,0,18.709,46.8a1.606,1.606,0,0,0,.07.508,2.6,2.6,0,0,0,.291.3h.522a25.911,25.911,0,0,1,2.159-1.818c.151-.091.09-.4.09-.4-.351-.965-1-3.118-1.486-4.54" transform="translate(-0.633 -0.611)"/><path class="cls-1" d="M94.439,22.962a.7.7,0,0,1-.372.234.756.756,0,0,1-.433-.091.686.686,0,0,1-.221-.376.57.57,0,0,1,.432-.67.748.748,0,0,1,.462.091.688.688,0,0,1,.251.376,1.1,1.1,0,0,1-.11.437m1.1-.559a.535.535,0,0,0-.321-.081.754.754,0,0,0-.311.071l-.171.081-.05-.264-.089-.132.23-.376h.191a.131.131,0,0,0,.11,0s.08-.112,0-.193a.2.2,0,0,0-.211-.1.474.474,0,0,0-.28.132,1.278,1.278,0,0,0-.2.284l-.06.152-.362-.193h-.05l-.1-.4a.092.092,0,0,1,.067-.11l.013,0s.161,0,.181-.122-.11-.223-.11-.223a.322.322,0,0,0-.221.091c-.07.071-.07.295-.07.295l.06.315.05.142-.24.081a.189.189,0,0,0-.081.061,2.985,2.985,0,0,1-.412-.2.317.317,0,0,1-.049-.1s.049-.1,0-.162a.141.141,0,0,0-.222,0c-.08.081-.09.081-.09.173a.519.519,0,0,0,.151.315,1.81,1.81,0,0,0,.432.193V22.2l-.11.315-.231.152a1.062,1.062,0,0,1-.241,0v-.122l-.131-.081s-.2,0-.211.132a.393.393,0,0,0,.09.2.746.746,0,0,0,.261.112,1.182,1.182,0,0,0,.372-.061l.161-.071.1.223.069.132-.069.244-.142.213h-.09a.171.171,0,0,1-.07-.061.169.169,0,0,0-.221,0c-.11.1,0,.264,0,.264a.408.408,0,0,0,.492-.071,1.311,1.311,0,0,0,.2-.284l.049-.142.341.071a1.8,1.8,0,0,1,.131.467c0,.051-.1,0-.15.071a.211.211,0,0,0-.071.142.18.18,0,0,0,.191.162.523.523,0,0,0,.251-.112.587.587,0,0,0,.08-.274,1.407,1.407,0,0,0-.09-.325l-.08-.152.241-.071.141-.1.181.091.2.162V23.5s-.079.132,0,.213.241,0,.241,0a.472.472,0,0,0,.08-.234c0-.112-.171-.264-.171-.264l-.241-.2-.141-.051.071-.366a1.447,1.447,0,0,1,.21-.041c.122,0,.2-.071.241,0s0,.1,0,.1a.162.162,0,0,0,.172.142.209.209,0,0,0,.19-.142s0-.183-.059-.234" transform="translate(-0.633 -0.611)"/></svg>