<svg id="Layer_1" data-name="Layer 1" xmlns="http://www.w3.org/2000/svg" viewBox="0 0 37.497 49.997"><defs><style>.cls-1{fill:#2069d6;}</style></defs><title>DOC</title><path class="cls-1" d="M44.882,12.071a4.52,4.52,0,0,1,1.367,3.32v32.42A4.668,4.668,0,0,1,41.561,52.5H13.439a4.668,4.668,0,0,1-4.687-4.687V7.189a4.52,4.52,0,0,1,1.367-3.32A4.521,4.521,0,0,1,13.439,2.5h19.92a4.52,4.52,0,0,1,3.32,1.367Zm-2.246,2.246-8.2-8.2a2.605,2.605,0,0,0-.684-.488V15h9.374A2.607,2.607,0,0,0,42.636,14.317ZM41.561,49.374a1.5,1.5,0,0,0,1.562-1.562V18.126H32.968a2.334,2.334,0,0,1-2.344-2.344V5.627H13.439a1.5,1.5,0,0,0-1.562,1.562V47.811a1.5,1.5,0,0,0,1.562,1.562ZM36.288,25.254a1.084,1.084,0,0,1,.439-.635,1.237,1.237,0,0,1,.732-.244h.684a1.113,1.113,0,0,1,.928.439,1.261,1.261,0,0,1,.244,1.025l-4.2,16.405a1.007,1.007,0,0,1-.586.635,2,2,0,0,1-.879.244H32.285a1.237,1.237,0,0,1-.732-.244,1.084,1.084,0,0,1-.439-.635l-.781-3.125q-2.246-8.3-2.636-9.863l-.2-.977q-.2,1.172-.391,2.246L23.985,42.245a1.085,1.085,0,0,1-.439.635,1.237,1.237,0,0,1-.732.244h-1.66a1.237,1.237,0,0,1-.732-.244.747.747,0,0,1-.342-.635L15.88,25.84a1.261,1.261,0,0,1,.244-1.025,1.113,1.113,0,0,1,.928-.439h.683a1.237,1.237,0,0,1,.732.244,1.084,1.084,0,0,1,.439.635q2.929,12.206,3.222,14.159l.1.977v-.2q.2-.977.684-2.93.586-2.539,3.222-12.011a1.173,1.173,0,0,1,.391-.635,1.035,1.035,0,0,1,.683-.244h.684a1.035,1.035,0,0,1,.683.244,1.173,1.173,0,0,1,.391.635q2.344,8.593,3.515,12.5A12.635,12.635,0,0,1,33.066,40q.1-.586,1.758-8.2Q36.093,26.621,36.288,25.254Z" transform="translate(-8.751 -2.502)"/></svg>