<svg id="Layer_1" data-name="Layer 1" xmlns="http://www.w3.org/2000/svg" viewBox="0 0 37.497 49.997"><defs><style>.cls-1{fill:#e01e36;}</style></defs><title>PDF</title><path class="cls-1" d="M44.882,12.071a4.52,4.52,0,0,1,1.367,3.32v32.42A4.668,4.668,0,0,1,41.561,52.5H13.439a4.668,4.668,0,0,1-4.687-4.687V7.189a4.52,4.52,0,0,1,1.367-3.32A4.521,4.521,0,0,1,13.439,2.5h19.92a4.52,4.52,0,0,1,3.32,1.367Zm-2.246,2.246-8.2-8.2a2.605,2.605,0,0,0-.684-.488V15h9.374A2.607,2.607,0,0,0,42.636,14.317ZM41.561,49.374a1.5,1.5,0,0,0,1.562-1.562V18.126H32.968a2.334,2.334,0,0,1-2.344-2.344V5.627H13.439a1.5,1.5,0,0,0-1.562,1.562V47.811a1.5,1.5,0,0,0,1.562,1.562Zm-2.148-16.7A2.335,2.335,0,0,1,40,34.14a2.175,2.175,0,0,1-.537,1.709,2.322,2.322,0,0,1-1.855.732,10.511,10.511,0,0,1-2.978-.537,16.7,16.7,0,0,1-3.32-1.416,60.616,60.616,0,0,0-6.542,1.855l-1.465.488a27.984,27.984,0,0,1-3.076,4.492,4.6,4.6,0,0,1-2.685,1.66,2.287,2.287,0,0,1-1.9-.635A1.915,1.915,0,0,1,15,40.878q.586-2.441,5.761-5.175a68.087,68.087,0,0,0,4.1-8.593,36.851,36.851,0,0,1-.879-4.394,7.393,7.393,0,0,1,.1-3.222A1.657,1.657,0,0,1,25.3,18.272a2.664,2.664,0,0,1,2,.1,2.131,2.131,0,0,1,1.172,1.806,7.269,7.269,0,0,1,0,2.93,21.479,21.479,0,0,1-.586,3.027l-.1.293a10.668,10.668,0,0,0,4.394,5.566Q37.948,31.211,39.413,32.675ZM17.052,41.366q0,.1.488-.293A6.529,6.529,0,0,0,18.614,39.9a18.43,18.43,0,0,0,1.855-2.539l-.293.293A11.181,11.181,0,0,0,17.052,41.366ZM26.328,19.59v.1q-.2,0-.2,1.758a8.467,8.467,0,0,0,.391,2.832,5.249,5.249,0,0,0,.439-2.734Q26.914,19.59,26.328,19.59ZM23.594,35.214l1.269-.586a25.037,25.037,0,0,1,4.882-1.562,12.523,12.523,0,0,1-3.418-4.1A51.435,51.435,0,0,1,23.594,35.214Zm14.94-.586q.293-.2-.049-.439a3.59,3.59,0,0,0-1.221-.439,10.926,10.926,0,0,0-2.929,0,11.89,11.89,0,0,0,2.734.879,2.614,2.614,0,0,0,1.172.1A.4.4,0,0,0,38.534,34.628Z" transform="translate(-8.751 -2.502)"/></svg>