<svg id="Layer_2" data-name="Layer 2" xmlns="http://www.w3.org/2000/svg" viewBox="0 0 33.75 26.25" width="33.75" height="26.25"><defs><style>.cls-1{fill:#586277;opacity:0.5;}</style></defs><title>Mastercadr</title><path class="cls-1" d="M49.926,47.465a.645.645,0,1,0-1.289,0,.739.739,0,0,0,.176.5.638.638,0,0,0,.937,0A.739.739,0,0,0,49.926,47.465ZM31.7,46.82a.6.6,0,0,1,.645.644.739.739,0,0,1-.176.5.638.638,0,0,1-.937,0,.739.739,0,0,1-.176-.5.6.6,0,0,1,.644-.644Zm6.914-.059q.469,0,.527.527H38.031A.529.529,0,0,1,38.617,46.762Zm6.269.059a.739.739,0,0,1,.5.176.586.586,0,0,1,.2.469.7.7,0,0,1-.7.7.5.5,0,0,1-.439-.205,1.013,1.013,0,0,1-.176-.5A.55.55,0,0,1,44.418,47,.633.633,0,0,1,44.887,46.82ZM51.1,48.344l-.059-.117H50.98l-.117.059L50.8,48.4l.117.117.059.059.117-.117Zm-.117.059.059.059H50.98l-.059-.059v.059h-.059v-.176h.176V48.4Zm4.394-20.215a2.8,2.8,0,0,0-2.812-2.812H24.438a2.8,2.8,0,0,0-2.812,2.813V48.813a2.8,2.8,0,0,0,2.812,2.813H52.562a2.8,2.8,0,0,0,2.812-2.812Zm-30,8.2a7.893,7.893,0,0,1,1.084-4.072,8.262,8.262,0,0,1,2.959-2.959,7.921,7.921,0,0,1,8.555.293,8.806,8.806,0,0,0-2.842,9.258,8.283,8.283,0,0,0,2.842,4.219,8.046,8.046,0,0,1-4.512,1.348,8.088,8.088,0,0,1-8.086-8.086ZM38.5,42.719a7.625,7.625,0,0,1-2.725-3.926,8.063,8.063,0,0,1,0-4.8A7.939,7.939,0,0,1,38.5,30a7.939,7.939,0,0,1,2.725,3.984,8.063,8.063,0,0,1,0,4.8A7.625,7.625,0,0,1,38.5,42.719Zm-8.32,4.512v1.348h-.469v-.527a3.537,3.537,0,0,0-.088-.967.449.449,0,0,0-.439-.293.37.37,0,0,0-.439.264,3.9,3.9,0,0,0-.088,1l.058.527h-.469v-.527a3.537,3.537,0,0,0-.088-.967.449.449,0,0,0-.439-.293.37.37,0,0,0-.439.264,3.9,3.9,0,0,0-.088,1v.527h-.469V46.41h.469v.234a.813.813,0,0,1,.674-.293.738.738,0,0,1,.674.41.76.76,0,0,1,.7-.41.955.955,0,0,1,.7.234A.871.871,0,0,1,30.18,47.231Zm2.637-.82v2.168h-.469v-.293a.789.789,0,0,1-.7.352.981.981,0,0,1-.762-.322,1.295,1.295,0,0,1,0-1.641.949.949,0,0,1,.732-.322.994.994,0,0,1,.732.293V46.41Zm2.344,1.523q0,.527-.7.645a1.471,1.471,0,0,1-1.172-.234l.176-.352a1.4,1.4,0,0,0,.791.234q.439,0,.439-.234t-.469-.293a1.132,1.132,0,0,1-.586-.176.456.456,0,0,1-.293-.469q0-.586.644-.674a1.624,1.624,0,0,1,1.113.205l-.176.352a1.618,1.618,0,0,0-.732-.176q-.381,0-.381.205t.439.293a5.906,5.906,0,0,1,.615.146A.576.576,0,0,1,35.16,47.934Zm2.109.527a1.125,1.125,0,0,1-.85.146q-.5-.088-.5-.791v-1h-.469v-.41h.469v-.645h.469v.645h.762v.41h-.762v1q0,.352.234.352a1.041,1.041,0,0,0,.469-.117Zm.762-.762a.517.517,0,0,0,.5.469.985.985,0,0,0,.791-.234l.234.352a1.352,1.352,0,0,1-1.289.264.989.989,0,0,1-.7-1.084,1.133,1.133,0,0,1,.293-.791.982.982,0,0,1,.762-.322q1,0,1,1.348Zm3.457-1.289-.117.469a.729.729,0,0,0-.5-.059q-.264.059-.264.527v1.23h-.469V46.41h.469v.234a.533.533,0,0,1,.381-.293A.729.729,0,0,1,41.488,46.41Zm.644,1.055a.638.638,0,0,0,.381.674.809.809,0,0,0,.791-.147l.234.352a1.03,1.03,0,0,1-.762.293,1.242,1.242,0,0,1-.82-.293,1.079,1.079,0,0,1-.351-.879,1,1,0,0,1,.7-1.025,1.2,1.2,0,0,1,1.23.147L43.3,47a.808.808,0,0,0-.791-.146A.591.591,0,0,0,42.133,47.465ZM46,46.41v2.168h-.469v-.293a.735.735,0,0,1-.645.352,1.151,1.151,0,0,1-1.113-1.172,1.053,1.053,0,0,1,.322-.82,1.1,1.1,0,0,1,.762-.293.813.813,0,0,1,.674.293V46.41Zm1.992,0-.117.469a.628.628,0,0,0-.5-.029q-.264.088-.264.5v1.23h-.469V46.41h.469v.234a.477.477,0,0,1,.41-.264A1.157,1.157,0,0,1,47.992,46.41Zm2.344-.879v3.047h-.469v-.293a.63.63,0,0,1-.615.352,1.141,1.141,0,0,1-.791-.322,1.1,1.1,0,0,1-.351-.85,1.009,1.009,0,0,1,.351-.82,1.167,1.167,0,0,1,.762-.293.78.78,0,0,1,.644.293V45.531Zm.469-4.395h-.117v-.059h.293v.059h-.117v.293H50.8Zm.352,7.266-.117.176h-.176L50.8,48.52a.052.052,0,0,1-.059-.059v-.176l.059-.059.176-.059.176.117Zm.234-7.324v.352h-.059v-.293l-.117.234h-.059l-.117-.234v.293h0v-.352H51.1l.117.234.059-.234Zm.234-4.687a8.088,8.088,0,0,1-8.086,8.086,8.046,8.046,0,0,1-4.512-1.348,8.283,8.283,0,0,0,2.842-4.219,8.783,8.783,0,0,0-.029-5.068,8.6,8.6,0,0,0-2.812-4.248,8.046,8.046,0,0,1,4.512-1.348,7.782,7.782,0,0,1,4.043,1.113,8.262,8.262,0,0,1,2.959,2.959A7.893,7.893,0,0,1,51.625,36.391Z" transform="translate(-21.625 -25.375)"/></svg>
