<svg id="Layer_1" data-name="Layer 1" xmlns="http://www.w3.org/2000/svg" viewBox="0 0 27 36" width="27" height="36"><defs><style>.cls-1{opacity:0.5;}.cls-2{fill:#586277;}.cls-3{fill:#1d2533;}.cls-4{fill:#fff;}</style></defs><title>Yandex-money</title><g class="cls-1"><path class="cls-2" d="M407.445,297.5c0-2.022.167-3.3,4.3-6.429,3.418-2.587,14.373-11.428,14.373-11.428V294.4h8.331V315.64h-24.4a2.629,2.629,0,0,1-2.6-2.639Z" transform="translate(-407.445 -279.64)"/><polygon class="cls-3" points="18.669 14.759 18.669 23.31 3.36 33.886 22.715 27.5 22.715 14.759 18.669 14.759"/><path class="cls-4" d="M419.118,293.956c.9-1.082,2.2-1.464,2.921-.853s.574,1.983-.321,3.065-2.2,1.463-2.921.852-.574-1.983.321-3.064Z" transform="translate(-407.445 -279.64)"/></g></svg>
