<svg id="Layer_1" data-name="Layer 1" xmlns="http://www.w3.org/2000/svg" viewBox="0 0 53 18" width="53" height="18"><defs><style>.cls-1{fill:#586277;opacity:0.5;}</style></defs><title>Visa</title><path class="cls-1" d="M50.524,30.237a10.073,10.073,0,0,0-3.842-.737c-4.24,0-7.232,2.369-7.254,5.763-.027,2.5,2.129,3.9,3.756,4.737,1.672.856,2.23,1.395,2.226,2.166-.011,1.167-1.336,1.7-2.566,1.7a8.33,8.33,0,0,1-4.043-.918l-.528-.272-.6,3.91a13.11,13.11,0,0,0,4.8.918c4.507,0,7.453-2.352,7.488-5.968.035-1.989-1.126-3.5-3.58-4.742-1.488-.808-2.416-1.348-2.416-2.168,0-.724.793-1.5,2.449-1.5a7.2,7.2,0,0,1,3.213.668l.4.2.6-3.778Zm11-.416H58.216a2.122,2.122,0,0,0-2.255,1.446L49.59,47.255H54.1l.9-2.618,5.5,0c.135.612.53,2.613.53,2.613H65Zm-28.2-.147h4.291L34.94,47.118H30.647l2.685-17.449ZM22.426,39.288l.446,2.423,4.2-11.89h4.547l-6.76,17.41H20.321l-3.71-14.746a.969.969,0,0,0-.4-.58A17.06,17.06,0,0,0,12,30.175l.055-.367H18.97a1.815,1.815,0,0,1,1.95,1.478L22.426,39.3Zm33.805,1.779,1.711-4.879c-.022.049.353-1.008.57-1.664l.294,1.5.992,5.033H56.231Z" transform="translate(-12 -29.5)"/></svg>
