<svg id="Layer_1" data-name="Layer 1" xmlns="http://www.w3.org/2000/svg" viewBox="0 0 24 15"><defs><style>.cls-1{fill:#fff;opacity:0.2;}</style></defs><title>VK</title><path class="cls-1" d="M26.847,14.59a1.9,1.9,0,0,0-.081-.172,13.394,13.394,0,0,0-2.388-3.025l-.024-.028-.013-.013-.012-.013h-.012q-.8-.836-1.013-1.123a1.135,1.135,0,0,1-.175-1.109,10.465,10.465,0,0,1,1.126-1.793c.341-.483.612-.872.812-1.163Q27.227,3,26.94,2.127l-.074-.136a.71.71,0,0,0-.388-.225,1.762,1.762,0,0,0-.8-.036l-3.6.028a.417.417,0,0,0-.25.008l-.163.04-.062.034-.05.042a.518.518,0,0,0-.138.143.96.96,0,0,0-.124.239,23.474,23.474,0,0,1-1.338,3.08q-.462.847-.849,1.471a6.982,6.982,0,0,1-.65.917,4.862,4.862,0,0,1-.475.472c-.143.119-.25.169-.325.151s-.146-.037-.213-.056a.866.866,0,0,1-.281-.336,1.6,1.6,0,0,1-.144-.533c-.024-.214-.039-.4-.043-.554s0-.374.006-.656S17,5.744,17,5.645c0-.347.006-.724.018-1.129s.023-.729.031-.966.012-.488.012-.753a3.475,3.475,0,0,0-.043-.623,2.355,2.355,0,0,0-.132-.438.727.727,0,0,0-.256-.328,1.4,1.4,0,0,0-.418-.185,7.614,7.614,0,0,0-1.687-.177,7.536,7.536,0,0,0-2.987.328,1.713,1.713,0,0,0-.475.41c-.15.2-.17.311-.063.328a1.5,1.5,0,0,1,1.063.59l.075.164a2.758,2.758,0,0,1,.174.628,6.867,6.867,0,0,1,.114,1,11.811,11.811,0,0,1,0,1.711c-.042.474-.081.844-.118,1.109a2.373,2.373,0,0,1-.169.643,2.619,2.619,0,0,1-.151.3.225.225,0,0,1-.062.069.851.851,0,0,1-.338.067.748.748,0,0,1-.424-.191,3.1,3.1,0,0,1-.518-.529,6.919,6.919,0,0,1-.606-.937q-.337-.6-.7-1.424l-.2-.4c-.126-.255-.3-.626-.512-1.115s-.408-.959-.575-1.417a.906.906,0,0,0-.3-.438l-.063-.041a.868.868,0,0,0-.2-.116A1.2,1.2,0,0,0,7.2,1.7l-3.424.026a.831.831,0,0,0-.711.261l-.051.082a.5.5,0,0,0-.037.22,1.188,1.188,0,0,0,.075.369Q3.8,4.591,4.68,6.383t1.53,2.888q.649,1.1,1.324,2.067t.894,1.246c.146.183.261.32.344.41l.312.329a7.719,7.719,0,0,0,.882.786,15.031,15.031,0,0,0,1.286.9,6.617,6.617,0,0,0,1.644.725,5.18,5.18,0,0,0,1.825.226h1.436a.954.954,0,0,0,.663-.3l.05-.069a.958.958,0,0,0,.093-.254,1.514,1.514,0,0,0,.045-.376,4.994,4.994,0,0,1,.08-1.061,3,3,0,0,1,.214-.712,1.709,1.709,0,0,1,.268-.4,1.2,1.2,0,0,1,.213-.2.775.775,0,0,1,.1-.048.745.745,0,0,1,.707.212,4.439,4.439,0,0,1,.762.8c.237.315.523.668.855,1.061a6.274,6.274,0,0,0,.874.876l.25.164a2.916,2.916,0,0,0,.65.3,1.266,1.266,0,0,0,.7.069l3.2-.054a1.343,1.343,0,0,0,.737-.172.659.659,0,0,0,.313-.376,1.151,1.151,0,0,0,.006-.466,1.945,1.945,0,0,0-.087-.363" transform="translate(-2.974 -1.044)"/></svg>