<svg id="Layer_1" data-name="Layer 1" xmlns="http://www.w3.org/2000/svg" viewBox="0 0 19.997 20"><defs><style>.cls-1{fill:#fff;opacity:0.2;}</style></defs><title>Insta</title><path class="cls-1" d="M16.132,0H3.864A3.869,3.869,0,0,0,0,3.864V16.135A3.869,3.869,0,0,0,3.864,20H16.132A3.87,3.87,0,0,0,20,16.135V3.864A3.869,3.869,0,0,0,16.132,0m1.109,2.305.442,0V5.694L14.3,5.7l-.012-3.39ZM7.145,7.947A3.514,3.514,0,1,1,6.479,10a3.513,3.513,0,0,1,.666-2.052m10.9,8.188a1.918,1.918,0,0,1-1.916,1.916H3.864a1.918,1.918,0,0,1-1.916-1.916V7.947H4.934A5.416,5.416,0,0,0,4.53,10,5.468,5.468,0,1,0,15.063,7.947h2.985Z" transform="translate(0 0)"/></svg>